HIERARCHY
ROOT Hips
{
	OFFSET 0.000000 0.000000 0.000000
	CHANNELS 6 Xposition Yposition Zposition Xrotation Yrotation Zrotation
	JOINT LeftUpLeg_virtual
	{
		OFFSET 0.000000 0.000000 0.000000
		CHANNELS 3 Xrotation Yrotation Zrotation
		JOINT LeftUpLeg
		{
			OFFSET 11.394100 -6.187798 -0.413800
			CHANNELS 3 Xrotation Yrotation Zrotation
			JOINT LeftLeg
			{
				OFFSET 0.430247 -32.302673 3.732800
				CHANNELS 3 Xrotation Yrotation Zrotation
				JOINT LeftFoot
				{
					OFFSET -0.430247 -48.264931 -6.423300
					CHANNELS 3 Xrotation Yrotation Zrotation
					JOINT LeftToeBase
					{
						OFFSET 4.230900 -16.068199 23.438400
						CHANNELS 3 Xrotation Yrotation Zrotation
						JOINT LeftToe_End
						{
							OFFSET 4.510700 0.695400 19.974600
							CHANNELS 3 Xrotation Yrotation Zrotation
							End Site
							{
								OFFSET 0 0 0
							}
						}
					}
				}
			}
		}
	}
	JOINT RightUpLeg_virtual
	{
		OFFSET 0.000000 0.000000 0.000000
		CHANNELS 3 Xrotation Yrotation Zrotation
		JOINT RightUpLeg
		{
			OFFSET -11.333700 -6.187798 -0.413800
			CHANNELS 3 Xrotation Yrotation Zrotation
			JOINT RightLeg
			{
				OFFSET -0.430392 -32.302628 3.733000
				CHANNELS 3 Xrotation Yrotation Zrotation
				JOINT RightFoot
				{
					OFFSET 0.430392 -48.264973 -6.423500
					CHANNELS 3 Xrotation Yrotation Zrotation
					JOINT RightToeBase
					{
						OFFSET -4.230900 -16.068199 23.438400
						CHANNELS 3 Xrotation Yrotation Zrotation
						JOINT RightToe_End
						{
							OFFSET -4.510700 0.695400 19.974600
							CHANNELS 3 Xrotation Yrotation Zrotation
							End Site
							{
								OFFSET 0 0 0
							}
						}
					}
				}
			}
		}
	}
	JOINT Spine_virtual
	{
		OFFSET 0.000000 0.000000 0.000000
		CHANNELS 3 Xrotation Yrotation Zrotation
		JOINT Spine
		{
			OFFSET -0.002400 12.777504 0.315300
			CHANNELS 3 Xrotation Yrotation Zrotation
			JOINT Spine1
			{
				OFFSET -0.002067 5.816869 0.032633
				CHANNELS 3 Xrotation Yrotation Zrotation
				JOINT Spine1_split
				{
					OFFSET -0.002067 5.816869 0.032633
					CHANNELS 3 Xrotation Yrotation Zrotation
					JOINT Spine2
					{
						OFFSET -0.002067 5.816869 0.032633
						CHANNELS 3 Xrotation Yrotation Zrotation
						JOINT Neck_virtual
						{
							OFFSET 0.000000 0.000000 0.000000
							CHANNELS 3 Xrotation Yrotation Zrotation
							JOINT Neck
							{
								OFFSET -0.003700 21.199493 -0.826900
								CHANNELS 3 Xrotation Yrotation Zrotation
								JOINT Head
								{
									OFFSET 0.000000 20.442200 4.834800
									CHANNELS 3 Xrotation Yrotation Zrotation
									JOINT HeadTop_End
									{
										OFFSET 0.000000 34.668396 4.968400
										CHANNELS 3 Xrotation Yrotation Zrotation
										End Site
										{
											OFFSET 0 0 0
										}
									}
								}
							}
						}
						JOINT LeftShoulder_virtual
						{
							OFFSET 0.000000 0.000000 0.000000
							CHANNELS 3 Xrotation Yrotation Zrotation
							JOINT LeftShoulder
							{
								OFFSET 3.288150 8.794197 -1.372250
								CHANNELS 3 Xrotation Yrotation Zrotation
								JOINT LeftShoulder_split
								{
									OFFSET 3.288150 8.794197 -1.372250
									CHANNELS 3 Xrotation Yrotation Zrotation
									JOINT LeftArm
									{
										OFFSET 11.953299 -2.279007 -0.146200
										CHANNELS 3 Xrotation Yrotation Zrotation
										JOINT LeftForeArm
										{
											OFFSET 18.448900 0.000000 0.000000
											CHANNELS 3 Xrotation Yrotation Zrotation
											JOINT LeftHand
											{
												OFFSET 29.527798 0.000000 0.000000
												CHANNELS 3 Xrotation Yrotation Zrotation
												End Site
												{
													OFFSET 0 0 0
												}
											}
										}
									}
								}
							}
						}
						JOINT RightShoulder_virtual
						{
							OFFSET 0.000000 0.000000 0.000000
							CHANNELS 3 Xrotation Yrotation Zrotation
							JOINT RightShoulder
							{
								OFFSET -3.249400 8.794197 -1.372250
								CHANNELS 3 Xrotation Yrotation Zrotation
								JOINT RightShoulder_split
								{
									OFFSET -3.249400 8.794197 -1.372250
									CHANNELS 3 Xrotation Yrotation Zrotation
									JOINT RightArm
									{
										OFFSET -11.953299 -2.279007 -0.146200
										CHANNELS 3 Xrotation Yrotation Zrotation
										JOINT RightForeArm
										{
											OFFSET -18.448900 0.000000 0.000000
											CHANNELS 3 Xrotation Yrotation Zrotation
											JOINT RightHand
											{
												OFFSET -29.527802 0.000000 0.000000
												CHANNELS 3 Xrotation Yrotation Zrotation
												End Site
												{
													OFFSET 0 0 0
												}
											}
										}
									}
								}
							}
						}
					}
				}
			}
		}
	}
}
MOTION
Frames: 4
Frame Time: 0.03333333
6.941421 40.990925 -23.260303 0.000000 0.000000 0.000000 4.529110 21.972331 0.180879 -11.868685 -32.762416 24.485632 95.093240 -0.085666 -8.898220 13.706198 20.995248 -29.641925 -32.788415 -7.930430 -26.977774 0.000000 0.000000 0.000000 7.343332 20.914683 -0.454888 -36.728038 -4.526454 -16.468093 114.032651 7.031757 -10.405888 18.779728 -22.010341 35.344959 -3.282855 12.950934 -40.951967 0.000000 0.000000 0.000000 7.815135 21.288313 -0.897543 7.910527 1.837419 3.543289 -5.226287 -1.235075 0.020943 0.009221 -0.084197 0.077396 0.000000 0.000000 0.000000 -3.270771 0.719333 0.402786 -1.178104 10.246220 4.750067 3.524659 6.544719 -9.399086 0.000000 0.000000 0.000000 -5.573042 -0.270357 -0.980567 -1.890802 -3.035615 -15.992823 -0.928847 1.065829 -3.016015 15.047204 -16.053422 -56.221008 5.162449 -27.677702 3.591438 0.000000 0.000000 0.000000 -2.899225 -0.022267 0.128684 -0.506906 -1.346963 15.765067 -3.780528 0.031216 1.299427 7.839212 7.828499 58.438081 1.834881 18.768472 5.787110 0.000000 0.000000 0.000000 
6.904090 40.996998 -23.255802 0.000000 0.000000 0.000000 4.600201 22.209479 0.144310 -11.986423 -32.773819 24.471449 95.114660 -0.183481 -8.862084 14.037355 20.766591 -30.030846 -33.676050 -7.863348 -26.737404 0.000000 0.000000 0.000000 7.383998 20.937187 -0.499420 -36.921414 -4.354338 -16.471350 114.060928 7.037070 -10.427269 18.973287 -21.956756 35.388880 -3.101003 12.831716 -40.832090 0.000000 0.000000 0.000000 7.822862 21.359023 -0.954853 7.867667 1.808201 3.536328 -5.258103 -1.206175 0.046563 -0.020310 -0.076219 0.093840 0.000000 0.000000 0.000000 -3.352623 0.724033 0.426812 -1.041007 10.250541 4.673644 3.601741 6.181350 -9.450822 0.000000 0.000000 0.000000 -5.626467 -0.242742 -0.965334 -1.886958 -2.814786 -15.999431 -0.946983 1.166541 -2.956620 15.120439 -15.608258 -56.137390 5.301956 -27.908546 3.549140 0.000000 0.000000 0.000000 -2.932359 0.006856 0.136995 -0.539191 -1.401721 15.827514 -4.099040 -0.306516 1.162909 7.794203 7.526257 58.394634 1.825738 18.635160 5.847836 0.000000 0.000000 0.000000 
6.853363 41.052010 -23.253704 0.000000 0.000000 0.000000 4.715265 22.344803 0.084557 -11.963711 -32.913445 24.452304 95.273250 -0.277830 -8.922297 14.441537 20.688307 -30.325661 -35.245760 -7.616581 -26.502249 0.000000 0.000000 0.000000 7.471820 20.992817 -0.567368 -37.228277 -4.167028 -16.486516 114.106923 7.050470 -10.471994 19.078706 -21.860698 35.381784 -2.786023 12.715021 -40.983676 0.000000 0.000000 0.000000 7.920350 21.399915 -1.050514 7.806188 1.753030 3.527710 -5.294110 -1.140471 0.087701 -0.010984 -0.061851 0.095346 0.000000 0.000000 0.000000 -3.462965 0.753217 0.479293 -0.903776 10.260818 4.466662 3.681034 5.572531 -9.580984 0.000000 0.000000 0.000000 -5.701789 -0.194997 -0.945014 -1.872054 -2.461996 -16.039343 -1.028250 1.039692 -2.863836 15.399718 -14.594858 -56.041446 5.323587 -29.315688 3.380006 0.000000 0.000000 0.000000 -2.976328 0.066090 0.164864 -0.560965 -1.460614 15.943955 -4.317480 -0.425849 0.937391 7.662331 6.757522 58.315199 1.764314 18.628617 5.917260 0.000000 0.000000 0.000000 
6.791854 41.127525 -23.242603 0.000000 0.000000 0.000000 4.840194 22.394882 0.025248 -11.793295 -33.050394 24.383015 95.513106 -0.204000 -9.186280 14.512528 21.046098 -30.253462 -36.383359 -7.335072 -26.551488 0.000000 0.000000 0.000000 7.601395 21.039969 -0.637945 -37.550153 -4.023756 -16.500156 114.172513 7.027139 -10.491271 19.044912 -21.799932 35.256702 -2.498205 12.670085 -41.353046 0.000000 0.000000 0.000000 8.071258 21.380406 -1.150733 7.745761 1.684076 3.523676 -5.336497 -1.048105 0.125214 0.028383 -0.042168 0.083424 0.000000 0.000000 0.000000 -3.601276 0.804397 0.543969 -0.784829 10.272893 4.150912 3.758030 4.730607 -9.760549 0.000000 0.000000 0.000000 -5.794338 -0.129019 -0.928152 -1.858582 -2.033076 -16.096234 -1.115923 0.706900 -2.661181 15.812487 -13.011105 -55.992955 5.258703 -31.633331 3.143081 0.000000 0.000000 0.000000 -3.031595 0.155586 0.204500 -0.571252 -1.515482 16.106880 -4.496742 -0.500073 0.645323 7.453625 5.620523 58.160604 1.674736 18.652832 5.979203 0.000000 0.000000 0.000000 
